<mxfile host="app.diagrams.net" agent="Mozilla/5.0 (Windows NT 10.0; Win64; x64) AppleWebKit/537.36 (KHTML, like Gecko) Chrome/122.0.0.0 Safari/537.36" version="24.8.4">
  <diagram name="Page-1" id="099fd60b-425b-db50-ffb0-6b813814b670">
    <mxGraphModel dx="722" dy="375" grid="1" gridSize="10" guides="1" tooltips="1" connect="1" arrows="1" fold="1" page="1" pageScale="1" pageWidth="850" pageHeight="1100" background="none" math="0" shadow="0">
      <root>
        <mxCell id="0" />
        <mxCell id="1" parent="0" />
        <mxCell id="XQf-k5uqCIXAvg6BHyDI-3" value="" style="edgeStyle=orthogonalEdgeStyle;rounded=0;orthogonalLoop=1;jettySize=auto;html=1;" edge="1" parent="1" source="XQf-k5uqCIXAvg6BHyDI-1" target="XQf-k5uqCIXAvg6BHyDI-2">
          <mxGeometry relative="1" as="geometry" />
        </mxCell>
        <mxCell id="XQf-k5uqCIXAvg6BHyDI-1" value="&lt;p&gt;Start&lt;/p&gt;" style="verticalLabelPosition=middle;verticalAlign=middle;html=1;shape=card;whiteSpace=wrap;size=20;arcSize=12;horizontal=1;align=center;labelPosition=center;" vertex="1" parent="1">
          <mxGeometry x="390" y="40" width="100" height="60" as="geometry" />
        </mxCell>
        <mxCell id="XQf-k5uqCIXAvg6BHyDI-5" value="" style="edgeStyle=orthogonalEdgeStyle;rounded=0;orthogonalLoop=1;jettySize=auto;html=1;" edge="1" parent="1" source="XQf-k5uqCIXAvg6BHyDI-2" target="XQf-k5uqCIXAvg6BHyDI-4">
          <mxGeometry relative="1" as="geometry" />
        </mxCell>
        <mxCell id="XQf-k5uqCIXAvg6BHyDI-2" value="Take Snapshot and evaluate" style="whiteSpace=wrap;html=1;arcSize=12;" vertex="1" parent="1">
          <mxGeometry x="380" y="180" width="120" height="60" as="geometry" />
        </mxCell>
        <mxCell id="XQf-k5uqCIXAvg6BHyDI-4" value="if D" style="rhombus;whiteSpace=wrap;html=1;arcSize=12;" vertex="1" parent="1">
          <mxGeometry x="400" y="310" width="80" height="80" as="geometry" />
        </mxCell>
      </root>
    </mxGraphModel>
  </diagram>
</mxfile>
